<svg width="300" height="216" viewBox="0 0 300 216" fill="none" xmlns="http://www.w3.org/2000/svg">
<path d="M264.78 0.458436C263.979 0.558505 260.577 0.958783 257.274 1.4091C250.37 2.25969 240.663 4.51125 235.009 6.61271C226.403 9.81493 218.347 14.7183 207.49 23.3743C194.431 33.7816 186.175 42.4876 176.869 55.4966C174.017 59.4994 170.314 64.3027 168.613 66.2041C166.862 68.2054 164.86 71.1075 163.96 73.0588C162.108 76.9615 161.158 78.9129 158.056 84.6669C156.755 87.0185 155.254 90.2707 154.653 91.9219C153.603 94.7739 153.252 94.8739 152.852 92.4222C152.752 91.8719 152.202 91.2214 151.551 90.9212C150.951 90.671 150.45 90.1707 150.45 89.8705C150.45 88.6696 155.004 80.2638 158.906 74.2596C161.258 70.6571 163.409 66.5543 164.26 64.2527C165.411 61.0505 167.112 56.6474 168.313 53.7454C168.463 53.4452 168.313 53.145 168.013 53.145C167.262 53.145 165.861 56.1471 164.01 61.7009C163.109 64.3528 161.658 67.7551 160.757 69.2061C159.857 70.7072 157.555 74.3597 155.704 77.4118C153.853 80.4139 151.701 84.2165 150.951 85.7676L149.6 88.6196L148.399 86.5682C146.848 83.9664 143.746 80.0637 138.792 74.4598C133.739 68.7058 132.388 66.6544 129.086 60.0998C127.635 57.0977 126.184 54.646 125.933 54.646C125.233 54.646 125.233 54.6961 127.384 59.3493C130.236 65.5036 133.088 69.6564 139.143 76.4111C144.346 82.2152 147.448 86.6182 147.448 88.1693C147.448 88.8197 147.398 88.8197 146.948 88.1693C146.498 87.5188 146.398 87.5188 145.997 88.1693C143.045 93.1227 142.745 93.3729 142.195 91.6717C141.344 88.9198 124.582 63.252 117.528 53.8955C102.067 33.3312 84.8049 17.8205 68.1434 9.56475C64.2907 7.66343 59.4373 5.56198 57.3859 4.91153C45.0273 1.00882 31.0677 -0.24205 18.0587 1.35906C9.4527 2.40979 5.39989 4.0109 2.19768 7.56337C-0.254022 10.3153 -0.604265 12.4668 0.896775 16.0693C2.44785 19.9219 7.50135 25.9261 11.2039 28.3778C13.3554 29.7788 14.6563 31.1297 15.657 32.8809C16.4075 34.2319 18.559 36.9838 20.4603 38.9351C24.313 42.8879 24.8634 44.2388 24.8634 49.2923C24.8634 53.095 25.5138 54.9963 27.8154 57.8483C30.3672 61.0004 30.3672 61.1005 27.8655 70.6071C27.4151 72.3083 27.4652 72.4084 29.8668 78.6627C30.7174 80.8642 30.8675 82.3653 30.8175 86.4681C30.7174 91.4215 30.7174 91.5216 32.7689 95.7245C34.8703 99.9775 37.372 102.879 40.1239 104.28C43.026 105.782 50.6312 106.682 60.5881 106.682L70.1447 106.732L66.3421 108.133C53.3831 112.936 42.9759 120.141 39.5736 126.596C39.1733 127.346 37.9224 129.348 36.8717 131.099C35.7709 132.85 34.6201 135.152 34.3199 136.203C33.6194 138.454 34.1698 139.505 36.9217 141.356C39.0232 142.757 39.8738 145.409 38.9731 147.911C38.6229 148.811 38.3727 150.613 38.3727 151.914C38.3727 154.115 38.5729 154.515 40.5743 156.417C43.5263 159.169 43.9766 160.77 43.5763 167.174C43.2261 173.078 43.1761 172.978 46.6285 174.679C48.1295 175.43 48.6298 176.03 49.4304 178.282C50.1809 180.583 50.281 181.884 50.0308 186.838L49.7306 192.742L51.5318 193.492C52.5325 193.893 54.3338 194.243 55.5346 194.243C57.4359 194.243 57.9363 194.493 60.3379 196.945L62.9898 199.647L63.4401 204.05C63.6903 206.501 64.1406 209.003 64.3908 209.604C65.0912 211.255 66.9926 211.505 70.6951 210.504C75.8487 209.103 80.2517 210.054 84.7048 213.506C86.3059 214.757 88.1072 215.758 88.7076 215.758C90.3087 215.758 93.2607 214.057 95.9126 211.555C98.4644 209.203 103.018 205.951 105.819 204.55C106.82 204.05 109.272 202.148 111.173 200.297C113.125 198.496 115.776 196.294 117.127 195.494C119.029 194.293 120.329 192.792 123.232 188.389C125.283 185.337 126.934 182.685 126.934 182.535C126.934 182.285 128.685 179.683 133.739 172.428C134.539 171.277 137.041 167.775 139.243 164.622C146.097 155.016 148.299 149.562 147.748 143.758L147.448 140.506L148.449 142.507C149.4 144.408 149.55 144.458 151.801 144.458C154.303 144.408 154.003 144.658 155.854 140.205L156.404 138.955V140.456C156.404 141.256 156.004 143.608 155.504 145.609C154.953 147.611 154.653 149.712 154.803 150.362C155.454 153.314 156.705 156.617 158.256 159.269C159.156 160.87 160.507 163.622 161.258 165.323C162.008 167.074 163.86 170.476 165.361 172.978C166.862 175.43 169.063 179.483 170.314 181.984C173.266 187.838 175.668 191.091 177.669 191.941C178.62 192.342 180.621 194.243 182.423 196.444C184.124 198.546 186.275 200.597 187.126 201.048C188.026 201.498 189.177 202.248 189.728 202.749C190.278 203.249 191.629 204.1 192.73 204.7C193.83 205.251 195.982 207.002 197.483 208.553C201.035 212.205 203.937 213.606 206.139 212.706C207.04 212.355 208.19 211.655 208.791 211.155C209.441 210.604 211.743 209.804 214.495 209.303L219.148 208.353L222.35 209.554C228.504 211.855 230.055 211.105 231.056 205.2C231.757 201.348 232.857 199.346 235.659 197.145C237.511 195.644 238.111 195.494 241.664 195.294C247.017 195.043 247.367 194.593 246.517 187.788C245.967 183.435 246.017 182.635 246.767 180.934C248.418 177.081 248.768 176.631 250.72 175.98C253.772 174.929 253.972 174.529 254.072 168.975C254.122 166.223 254.322 163.722 254.522 163.472C254.723 163.171 255.023 162.371 255.223 161.62C255.373 160.82 256.124 159.919 256.924 159.519C257.675 159.119 258.775 158.268 259.426 157.567C260.477 156.467 260.577 155.966 260.427 151.313C260.326 146.96 260.427 146.16 261.227 145.259C261.777 144.658 262.428 144.208 262.778 144.208C263.078 144.208 263.979 143.558 264.729 142.757C265.98 141.456 266.13 141.006 265.93 138.955C265.78 137.704 265.18 135.702 264.629 134.551C264.079 133.401 263.128 131.099 262.528 129.448C261.928 127.797 261.177 125.895 260.877 125.195C260.126 123.694 254.072 117.189 253.372 117.189C253.121 117.189 251.72 116.439 250.32 115.538C248.919 114.588 245.816 112.836 243.415 111.636L239.012 109.434L241.664 109.334C246.517 109.084 251.771 108.083 254.122 106.882C256.274 105.782 260.026 101.779 260.026 100.528C260.026 100.278 260.777 99.1769 261.727 98.1262C263.829 95.8746 264.279 93.8732 263.879 88.5696C263.579 84.1665 264.279 81.3646 266.731 77.1617C268.282 74.4598 268.382 71.858 267.131 68.1054C266.581 66.6043 266.08 64.4528 265.88 63.302C265.63 61.3006 265.78 60.9504 268.332 57.8983C271.034 54.546 271.234 54.0456 271.784 48.4417C272.185 44.439 272.785 43.3382 276.187 40.5863C277.789 39.3354 280.24 36.5335 281.691 34.432C283.693 31.58 285.044 30.1791 287.095 28.9282C290.447 26.9268 297.052 19.5717 298.753 15.8691C300.154 12.9171 300.304 11.7663 299.554 9.01437C298.903 6.71278 295.751 4.51125 291.048 3.06024C284.093 0.908748 271.184 -0.392154 264.78 0.458436Z" fill="white"/>
</svg>
