<svg width="160" height="80" viewBox="0 0 160 80" fill="none" xmlns="http://www.w3.org/2000/svg">
<path d="M48.1 44.1C48.7667 43.5667 49.5333 42.7667 50.4 41.7H53C53.8 42.9 54.5667 43.7 55.3 44.1C56.5 42.6333 57.8667 41.7333 59.4 41.4C61 41 63.4333 40.8 66.7 40.8L71.7 46.8V54.1C69.1667 54.1 67.5 54.5667 66.7 55.5C65.9 56.4333 65.5 57.8667 65.5 59.8V61.4C65.9667 61.3333 66.3667 61.1 66.7 60.7L69.4 62.5L74.4 68.5C73.9333 71.6333 72.7667 74 70.9 75.6C69.0333 77.2 66.6333 78 63.7 78C60.7667 78 58.0667 76.7 55.6 74.1C54 75.3 52.7333 76.1667 51.8 76.7C50.9333 77.2333 49.3333 77.7667 47 78.3C44.6667 78.9 41.2667 79.2 36.8 79.2C32.3333 79.2 27.7667 78.4333 23.1 76.9C18.5 75.4333 14.6 72.8333 11.4 69.1C8.2 65.3667 6.6 60.7333 6.6 55.2V54.1H5.4L0.4 48.1V40.8C3.33333 40.8 5.4 40.9 6.6 41.1V18.9C6.6 11.1 10.6667 5.8 18.8 2.99999C22.9333 1.53333 27.4667 0.799999 32.4 0.799999C37.3333 0.799999 41.6333 1.26667 45.3 2.2C48.9667 3.06666 52.3333 4.43333 55.4 6.3C58.5333 8.1 61 10.6 62.8 13.8C64.6 17 65.5 20.7 65.5 24.9V35H46.1L41.1 29V21.8L41 20.2C40.4 20 39.5333 19.9 38.4 19.9C33.4667 19.9 31 22.5333 31 27.8V41.2L35.7 46.8V54.1C34.5667 54.1667 33.6333 54.2667 32.9 54.4C32.2333 54.4667 31.5333 54.8 30.8 55.4C30.0667 56 29.7 56.8667 29.7 58L29.8 59.5C30.8667 59.9 32.3333 60.1 34.2 60.1C36.1333 60.1 37.8333 59.5667 39.3 58.5C40.8333 57.4333 41.8 55.9667 42.2 54.1H41.5L36.5 48.1V40.8C38.7667 40.8 40.4333 40.8333 41.5 40.9C44.4333 41.1 46.6333 42.1667 48.1 44.1ZM11.8 44.1C12.6 43.6333 13.3667 42.8333 14.1 41.7H16.8C17.6667 42.9 18.4333 43.7 19.1 44.1C20.3 42.7 21.6667 41.8 23.2 41.4V21.7C23.2 18.2333 24.1 15.5667 25.9 13.7C27.7 11.8333 30.2333 10.9 33.5 10.9C36.7667 10.9 39.3333 11.8333 41.2 13.7C43.0667 15.5 44 18.1667 44 21.7V26.2H57.7V19.1C57.7 15.4333 56.4333 12.4 53.9 10C51.4333 7.6 48.4667 5.96666 45 5.1C41.5333 4.16666 37.9667 3.7 34.3 3.7C30.6333 3.7 27.4333 3.96666 24.7 4.5C22.0333 5.03333 19.5 5.86666 17.1 7C14.7667 8.13333 12.9 9.73333 11.5 11.8C10.1 13.8667 9.4 16.3 9.4 19.1V42C10.3333 42.5333 11.1333 43.2333 11.8 44.1ZM42.1 60C39.9667 62 37.1333 63 33.6 63C30.0667 63 27.2333 62 25.1 60C23.0333 58 22 55.1667 22 51.5C22 50.2333 22.4667 48.9667 23.4 47.7C24.3333 46.4333 25.9 45.8 28.1 45.8V43.4C26.8333 43.4 25.8667 43.4667 25.2 43.6C24.6 43.6667 23.8 44.0667 22.8 44.8C21.8667 45.4667 20.9667 46.5 20.1 47.9C18.4333 47.5667 16.8667 46.4333 15.4 44.5C14.2 46.2333 12.7333 47.3667 11 47.9C10.1333 46.5 9.2 45.4667 8.2 44.8C7.2 44.0667 6.36667 43.6667 5.7 43.6C5.1 43.4667 4.2 43.4 3 43.4V45.8C7.26667 45.8 9.4 48.9 9.4 55.1C9.4 58.7 10.6667 61.6667 13.2 64C17.6667 68.2 24.4667 70.3 33.6 70.3C36.8 70.3 39.5333 70 41.8 69.4C44.1333 68.7333 45.7333 68.1 46.6 67.5C47.5333 66.9 48.7333 65.9667 50.2 64.7H51C52.4667 66.3 53.7667 67.4667 54.9 68.2C56.1 68.9333 57.4667 69.3 59 69.3C62.2667 69.3 64.7 67.5667 66.3 64.1C65.9 64.2333 65.3333 64.3 64.6 64.3C62.6 64.3 61.0667 63.7667 60 62.7C59 61.6333 58.3667 60.4667 58.1 59.2C57.9 57.9333 57.8 56.2333 57.8 54.1C57.8 48.5667 59.9333 45.8 64.2 45.8V43.4C63 43.4 62.0667 43.4667 61.4 43.6C60.7333 43.6667 59.9 44.0667 58.9 44.8C57.9 45.4667 56.9667 46.5 56.1 47.9C54.6333 47.5667 53.1667 46.4333 51.7 44.5C50.5 46.2333 49 47.3667 47.2 47.9C46.3333 46.5 45.4 45.4667 44.4 44.8C43.4 44.0667 42.5667 43.6667 41.9 43.6C41.2333 43.4667 40.3 43.4 39.1 43.4V45.8C41.3 45.8 42.8667 46.4667 43.8 47.8C44.8 49.0667 45.3 50.3 45.3 51.5C45.3 55.1667 44.2333 58 42.1 60ZM128.27 54.1H127.07C124.47 54.1 122.803 54.5667 122.07 55.5C121.403 56.4333 121.07 57.9333 121.07 60V61.5C121.47 61.3 121.803 61.0333 122.07 60.7L129.87 68.5C129.47 71.6333 128.336 74 126.47 75.6C124.603 77.2 122.403 78 119.87 78C117.336 78 114.736 77.1 112.07 75.3C109.403 77.1 106.803 78 104.27 78C100.67 78 97.3695 76.3 94.3695 72.9C91.3695 69.5667 89.6362 66.1 89.1695 62.5L91.9695 60.7C92.3029 61.3 93.0362 61.6 94.1695 61.6C95.3029 61.6 96.1695 61.1667 96.7695 60.3C97.4362 59.3667 97.8029 58.4667 97.8695 57.6C98.0029 56.7333 98.0695 55.5667 98.0695 54.1H96.9695L91.9695 48.1V40.8C94.7029 40.8 96.6362 40.9 97.7695 41.1V22.1H94.9695L89.9695 16.1V2H125.87C135.003 2 142.17 4.63333 147.37 9.89999C152.57 15.1667 155.17 21.8667 155.17 30C155.17 38.1333 152.636 44.1667 147.57 48.1C149.77 51.5 150.87 55.5 150.87 60.1V61.5C151.336 61.3 151.703 61.0333 151.97 60.7L154.67 62.5L159.67 68.5C159.336 71.8333 158.103 74.2333 155.97 75.7C153.836 77.2333 150.503 78 145.97 78C141.436 78 137.336 76.0333 133.67 72.1C130.07 68.2333 128.27 63.2667 128.27 57.2V54.1ZM133.67 44.1C134.47 43.6333 135.303 42.8333 136.17 41.7C136.836 41.7 137.303 41.7333 137.57 41.8C143.97 38.8667 147.17 32.7667 147.17 23.5C147.17 20.2333 146.603 17.4333 145.47 15.1C144.403 12.7 143.103 10.8667 141.57 9.6C140.103 8.26666 137.936 7.13333 135.07 6.19999C132.27 5.26666 128.97 4.79999 125.17 4.79999H92.7695V13.3H100.77V41.9C101.77 42.4333 102.636 43.1667 103.37 44.1C104.036 43.7 104.836 42.9 105.77 41.7H108.37C109.236 42.9 110.07 43.7 110.87 44.1C112.336 42.1667 114.436 41.1 117.17 40.9C118.17 40.8333 120.07 40.8 122.87 40.8C125.67 40.8 127.87 41 129.47 41.4C131.07 41.7333 132.47 42.6333 133.67 44.1ZM119.57 43.2C118.37 43.2 117.436 43.2667 116.77 43.4C116.17 43.4667 115.37 43.8667 114.37 44.6C113.37 45.3333 112.47 46.4333 111.67 47.9C110.003 47.5667 108.47 46.4 107.07 44.4C105.67 46.2 104.136 47.3667 102.47 47.9C101.67 46.4333 100.77 45.3333 99.7695 44.6C98.7695 43.8667 97.9362 43.4667 97.2695 43.4C96.6695 43.2667 95.8029 43.2 94.6695 43.2V45.7C98.9362 45.7 101.07 48.5 101.07 54.1C101.07 56.1667 100.936 57.8667 100.67 59.2C100.47 60.4667 99.8362 61.6667 98.7695 62.8C97.7029 63.8667 96.1695 64.4 94.1695 64.4L92.6695 64C94.0029 67.3333 96.1029 69 98.9695 69C101.836 69 104.436 67.9667 106.77 65.9H107.37C109.703 67.9667 112.27 69 115.07 69C117.936 69 120.103 67.3333 121.57 64C121.236 64.2667 120.503 64.4 119.37 64.4C118.236 64.4 117.17 64.1333 116.17 63.6C115.236 63 114.57 62.1667 114.17 61.1C113.503 59.3 113.17 56.9667 113.17 54.1C113.17 48.5 115.303 45.7 119.57 45.7H124.77C129.103 45.7 131.27 48.5 131.27 54.1V56.7C131.27 64.9 134.736 69 141.67 69C145.203 69 147.67 68.4 149.07 67.2C150.403 66.1333 151.17 65.0667 151.37 64C150.97 64.2667 150.47 64.4 149.87 64.4C147.136 64.4 145.336 63.4667 144.47 61.6C143.603 59.7333 143.17 57.1 143.17 53.7C143.17 48.7667 141.203 45.6667 137.27 44.4C136.003 46.2 134.536 47.3667 132.87 47.9C132.003 46.4333 131.07 45.3333 130.07 44.6C129.07 43.8667 128.236 43.4667 127.57 43.4C126.903 43.2667 125.97 43.2 124.77 43.2H119.57ZM113.57 13.3H119.87C129.403 13.3 134.17 17 134.17 24.4C134.17 28.3333 133.003 31.5667 130.67 34.1C128.403 36.6333 124.836 37.9 119.97 37.9H113.57V13.3ZM124.57 22H121.37V35C128.036 34.4667 131.37 30.9333 131.37 24.4L131.27 22.9C130.003 22.3 127.77 22 124.57 22Z" fill="white"/>
</svg>
