<svg width="468" height="80" viewBox="0 0 468 80" fill="none" xmlns="http://www.w3.org/2000/svg">
<path d="M48.1 44.1C48.7667 43.5667 49.5333 42.7667 50.4 41.7H53C53.8 42.9 54.5667 43.7 55.3 44.1C56.5 42.6333 57.8667 41.7333 59.4 41.4C61 41 63.4333 40.8 66.7 40.8L71.7 46.8V54.1C69.1667 54.1 67.5 54.5667 66.7 55.5C65.9 56.4333 65.5 57.8667 65.5 59.8V61.4C65.9667 61.3333 66.3667 61.1 66.7 60.7L69.4 62.5L74.4 68.5C73.9333 71.6333 72.7667 74 70.9 75.6C69.0333 77.2 66.6333 78 63.7 78C60.7667 78 58.0667 76.7 55.6 74.1C54 75.3 52.7333 76.1667 51.8 76.7C50.9333 77.2333 49.3333 77.7667 47 78.3C44.6667 78.9 41.2667 79.2 36.8 79.2C32.3333 79.2 27.7667 78.4333 23.1 76.9C18.5 75.4333 14.6 72.8333 11.4 69.1C8.2 65.3667 6.6 60.7333 6.6 55.2V54.1H5.4L0.4 48.1V40.8C3.33333 40.8 5.4 40.9 6.6 41.1V18.9C6.6 11.1 10.6667 5.8 18.8 2.99999C22.9333 1.53333 27.4667 0.799999 32.4 0.799999C37.3333 0.799999 41.6333 1.26667 45.3 2.2C48.9667 3.06666 52.3333 4.43333 55.4 6.3C58.5333 8.1 61 10.6 62.8 13.8C64.6 17 65.5 20.7 65.5 24.9V35H46.1L41.1 29V21.8L41 20.2C40.4 20 39.5333 19.9 38.4 19.9C33.4667 19.9 31 22.5333 31 27.8V41.2L35.7 46.8V54.1C34.5667 54.1667 33.6333 54.2667 32.9 54.4C32.2333 54.4667 31.5333 54.8 30.8 55.4C30.0667 56 29.7 56.8667 29.7 58L29.8 59.5C30.8667 59.9 32.3333 60.1 34.2 60.1C36.1333 60.1 37.8333 59.5667 39.3 58.5C40.8333 57.4333 41.8 55.9667 42.2 54.1H41.5L36.5 48.1V40.8C38.7667 40.8 40.4333 40.8333 41.5 40.9C44.4333 41.1 46.6333 42.1667 48.1 44.1ZM11.8 44.1C12.6 43.6333 13.3667 42.8333 14.1 41.7H16.8C17.6667 42.9 18.4333 43.7 19.1 44.1C20.3 42.7 21.6667 41.8 23.2 41.4V21.7C23.2 18.2333 24.1 15.5667 25.9 13.7C27.7 11.8333 30.2333 10.9 33.5 10.9C36.7667 10.9 39.3333 11.8333 41.2 13.7C43.0667 15.5 44 18.1667 44 21.7V26.2H57.7V19.1C57.7 15.4333 56.4333 12.4 53.9 10C51.4333 7.6 48.4667 5.96666 45 5.1C41.5333 4.16666 37.9667 3.7 34.3 3.7C30.6333 3.7 27.4333 3.96666 24.7 4.5C22.0333 5.03333 19.5 5.86666 17.1 7C14.7667 8.13333 12.9 9.73333 11.5 11.8C10.1 13.8667 9.4 16.3 9.4 19.1V42C10.3333 42.5333 11.1333 43.2333 11.8 44.1ZM42.1 60C39.9667 62 37.1333 63 33.6 63C30.0667 63 27.2333 62 25.1 60C23.0333 58 22 55.1667 22 51.5C22 50.2333 22.4667 48.9667 23.4 47.7C24.3333 46.4333 25.9 45.8 28.1 45.8V43.4C26.8333 43.4 25.8667 43.4667 25.2 43.6C24.6 43.6667 23.8 44.0667 22.8 44.8C21.8667 45.4667 20.9667 46.5 20.1 47.9C18.4333 47.5667 16.8667 46.4333 15.4 44.5C14.2 46.2333 12.7333 47.3667 11 47.9C10.1333 46.5 9.2 45.4667 8.2 44.8C7.2 44.0667 6.36667 43.6667 5.7 43.6C5.1 43.4667 4.2 43.4 3 43.4V45.8C7.26667 45.8 9.4 48.9 9.4 55.1C9.4 58.7 10.6667 61.6667 13.2 64C17.6667 68.2 24.4667 70.3 33.6 70.3C36.8 70.3 39.5333 70 41.8 69.4C44.1333 68.7333 45.7333 68.1 46.6 67.5C47.5333 66.9 48.7333 65.9667 50.2 64.7H51C52.4667 66.3 53.7667 67.4667 54.9 68.2C56.1 68.9333 57.4667 69.3 59 69.3C62.2667 69.3 64.7 67.5667 66.3 64.1C65.9 64.2333 65.3333 64.3 64.6 64.3C62.6 64.3 61.0667 63.7667 60 62.7C59 61.6333 58.3667 60.4667 58.1 59.2C57.9 57.9333 57.8 56.2333 57.8 54.1C57.8 48.5667 59.9333 45.8 64.2 45.8V43.4C63 43.4 62.0667 43.4667 61.4 43.6C60.7333 43.6667 59.9 44.0667 58.9 44.8C57.9 45.4667 56.9667 46.5 56.1 47.9C54.6333 47.5667 53.1667 46.4333 51.7 44.5C50.5 46.2333 49 47.3667 47.2 47.9C46.3333 46.5 45.4 45.4667 44.4 44.8C43.4 44.0667 42.5667 43.6667 41.9 43.6C41.2333 43.4667 40.3 43.4 39.1 43.4V45.8C41.3 45.8 42.8667 46.4667 43.8 47.8C44.8 49.0667 45.3 50.3 45.3 51.5C45.3 55.1667 44.2333 58 42.1 60ZM128.27 54.1H127.07C124.47 54.1 122.803 54.5667 122.07 55.5C121.403 56.4333 121.07 57.9333 121.07 60V61.5C121.47 61.3 121.803 61.0333 122.07 60.7L129.87 68.5C129.47 71.6333 128.336 74 126.47 75.6C124.603 77.2 122.403 78 119.87 78C117.336 78 114.736 77.1 112.07 75.3C109.403 77.1 106.803 78 104.27 78C100.67 78 97.3695 76.3 94.3695 72.9C91.3695 69.5667 89.6362 66.1 89.1695 62.5L91.9695 60.7C92.3029 61.3 93.0362 61.6 94.1695 61.6C95.3029 61.6 96.1695 61.1667 96.7695 60.3C97.4362 59.3667 97.8029 58.4667 97.8695 57.6C98.0029 56.7333 98.0695 55.5667 98.0695 54.1H96.9695L91.9695 48.1V40.8C94.7029 40.8 96.6362 40.9 97.7695 41.1V22.1H94.9695L89.9695 16.1V2H125.87C135.003 2 142.17 4.63333 147.37 9.89999C152.57 15.1667 155.17 21.8667 155.17 30C155.17 38.1333 152.636 44.1667 147.57 48.1C149.77 51.5 150.87 55.5 150.87 60.1V61.5C151.336 61.3 151.703 61.0333 151.97 60.7L154.67 62.5L159.67 68.5C159.336 71.8333 158.103 74.2333 155.97 75.7C153.836 77.2333 150.503 78 145.97 78C141.436 78 137.336 76.0333 133.67 72.1C130.07 68.2333 128.27 63.2667 128.27 57.2V54.1ZM133.67 44.1C134.47 43.6333 135.303 42.8333 136.17 41.7C136.836 41.7 137.303 41.7333 137.57 41.8C143.97 38.8667 147.17 32.7667 147.17 23.5C147.17 20.2333 146.603 17.4333 145.47 15.1C144.403 12.7 143.103 10.8667 141.57 9.6C140.103 8.26666 137.936 7.13333 135.07 6.19999C132.27 5.26666 128.97 4.79999 125.17 4.79999H92.7695V13.3H100.77V41.9C101.77 42.4333 102.636 43.1667 103.37 44.1C104.036 43.7 104.836 42.9 105.77 41.7H108.37C109.236 42.9 110.07 43.7 110.87 44.1C112.336 42.1667 114.436 41.1 117.17 40.9C118.17 40.8333 120.07 40.8 122.87 40.8C125.67 40.8 127.87 41 129.47 41.4C131.07 41.7333 132.47 42.6333 133.67 44.1ZM119.57 43.2C118.37 43.2 117.436 43.2667 116.77 43.4C116.17 43.4667 115.37 43.8667 114.37 44.6C113.37 45.3333 112.47 46.4333 111.67 47.9C110.003 47.5667 108.47 46.4 107.07 44.4C105.67 46.2 104.136 47.3667 102.47 47.9C101.67 46.4333 100.77 45.3333 99.7695 44.6C98.7695 43.8667 97.9362 43.4667 97.2695 43.4C96.6695 43.2667 95.8029 43.2 94.6695 43.2V45.7C98.9362 45.7 101.07 48.5 101.07 54.1C101.07 56.1667 100.936 57.8667 100.67 59.2C100.47 60.4667 99.8362 61.6667 98.7695 62.8C97.7029 63.8667 96.1695 64.4 94.1695 64.4L92.6695 64C94.0029 67.3333 96.1029 69 98.9695 69C101.836 69 104.436 67.9667 106.77 65.9H107.37C109.703 67.9667 112.27 69 115.07 69C117.936 69 120.103 67.3333 121.57 64C121.236 64.2667 120.503 64.4 119.37 64.4C118.236 64.4 117.17 64.1333 116.17 63.6C115.236 63 114.57 62.1667 114.17 61.1C113.503 59.3 113.17 56.9667 113.17 54.1C113.17 48.5 115.303 45.7 119.57 45.7H124.77C129.103 45.7 131.27 48.5 131.27 54.1V56.7C131.27 64.9 134.736 69 141.67 69C145.203 69 147.67 68.4 149.07 67.2C150.403 66.1333 151.17 65.0667 151.37 64C150.97 64.2667 150.47 64.4 149.87 64.4C147.136 64.4 145.336 63.4667 144.47 61.6C143.603 59.7333 143.17 57.1 143.17 53.7C143.17 48.7667 141.203 45.6667 137.27 44.4C136.003 46.2 134.536 47.3667 132.87 47.9C132.003 46.4333 131.07 45.3333 130.07 44.6C129.07 43.8667 128.236 43.4667 127.57 43.4C126.903 43.2667 125.97 43.2 124.77 43.2H119.57ZM113.57 13.3H119.87C129.403 13.3 134.17 17 134.17 24.4C134.17 28.3333 133.003 31.5667 130.67 34.1C128.403 36.6333 124.836 37.9 119.97 37.9H113.57V13.3ZM124.57 22H121.37V35C128.036 34.4667 131.37 30.9333 131.37 24.4L131.27 22.9C130.003 22.3 127.77 22 124.57 22ZM201.591 73.5C201.157 73.7 200.874 74.2 200.741 75C199.207 75 197.507 74.2 195.641 72.6C194.741 71.8333 193.974 70.75 193.341 69.35C192.741 67.9167 192.441 66.3333 192.441 64.6V63.05H191.841L190.141 61V63.05C188.841 63.05 187.991 63.2833 187.591 63.75C187.224 64.2167 187.041 64.9667 187.041 66V66.75C187.274 66.75 187.474 66.6167 187.641 66.35L189.041 67.25L191.541 70.25C191.341 71.8167 190.774 73 189.841 73.8C188.907 74.6 187.774 75 186.441 75C185.141 75 183.857 74.55 182.591 73.65C181.324 74.55 180.007 75 178.641 75C177.307 75 175.774 74.2 174.041 72.6C172.307 71 171.341 69.2167 171.141 67.25L172.541 66.35C172.674 66.65 172.991 66.8 173.491 66.8C174.924 66.8 175.641 65.55 175.641 63.05H175.041L172.541 60.05V56.4C173.874 56.4 174.807 56.4333 175.341 56.5V47.05H174.941L172.441 44.05V37H184.141L195.341 50.35V47.05H194.791L192.291 44.05V37H207.491L209.991 40V47.05H206.991V56.4H207.441L209.941 59.4V63.05C208.641 63.05 207.807 63.2833 207.441 63.75C207.074 64.2167 206.891 64.9667 206.891 66V66.75C207.124 66.6833 207.307 66.55 207.441 66.35L211.341 70.25C211.141 71.8167 210.557 73 209.591 73.8C208.657 74.6 207.691 75 206.691 75C205.691 75 204.724 74.85 203.791 74.55C202.857 74.2833 202.124 73.9333 201.591 73.5ZM178.241 58.05C178.574 57.85 178.974 57.45 179.441 56.85H180.741C181.174 57.45 181.574 57.85 181.941 58.05C182.307 57.5833 182.757 57.2167 183.291 56.95V47.4H184.691L191.991 56.5C193.357 56.6667 194.391 57.1833 195.091 58.05C195.424 57.85 195.824 57.45 196.291 56.85H200.441C200.874 57.45 201.291 57.85 201.691 58.05C202.124 57.5833 202.557 57.2333 202.991 57V42.65H206.091V38.4H193.691V42.65H196.691V53.15H194.991L182.591 38.4H173.841V42.65H176.841V56.9C177.374 57.1667 177.841 57.55 178.241 58.05ZM203.741 70.5C205.374 70.5 206.507 69.6667 207.141 68C206.941 68.1333 206.691 68.2 206.391 68.2C205.391 68.2 204.607 67.9333 204.041 67.4C203.507 66.8333 203.174 66.2333 203.041 65.6C202.941 64.9333 202.891 64.0833 202.891 63.05C202.891 60.25 203.974 58.85 206.141 58.85V57.6C205.541 57.6 205.074 57.6333 204.741 57.7C204.441 57.7333 204.024 57.9333 203.491 58.3C202.991 58.6667 202.524 59.2167 202.091 59.95C201.291 59.7833 200.541 59.2 199.841 58.2H196.891C196.191 59.1333 195.441 59.7167 194.641 59.95C194.207 59.2167 193.741 58.6667 193.241 58.3C192.741 57.9333 192.324 57.7333 191.991 57.7C191.691 57.6333 191.241 57.6 190.641 57.6V58.85C192.774 58.85 193.841 60.25 193.841 63.05V64.35C193.841 66.95 194.691 68.8 196.391 69.9C196.724 70.1 197.024 70.2333 197.291 70.3C197.557 69.3667 198.107 68.9 198.941 68.9C199.507 69.3667 200.291 69.75 201.291 70.05C202.291 70.35 203.107 70.5 203.741 70.5ZM180.241 68.95C181.441 69.9833 182.757 70.5 184.191 70.5C185.657 70.5 186.724 69.6667 187.391 68C187.157 68.1333 186.891 68.2 186.591 68.2C184.257 68.2 183.091 66.4833 183.091 63.05C183.091 60.25 184.191 58.85 186.391 58.85V57.6C185.757 57.6 185.274 57.6333 184.941 57.7C184.607 57.7333 184.191 57.9333 183.691 58.3C183.191 58.6667 182.741 59.2167 182.341 59.95C181.541 59.7833 180.791 59.2 180.091 58.2C179.391 59.1 178.641 59.6833 177.841 59.95C177.407 59.2167 176.941 58.6667 176.441 58.3C175.941 57.9333 175.524 57.7333 175.191 57.7C174.857 57.6333 174.391 57.6 173.791 57.6V58.85C175.991 58.85 177.091 60.25 177.091 63.05C177.091 65.5833 176.557 67.1667 175.491 67.8C174.991 68.0667 174.357 68.2 173.591 68.2L172.791 68C173.457 69.6667 174.507 70.5 175.941 70.5C177.407 70.5 178.741 69.9833 179.941 68.95H180.241ZM187.141 56.4H187.641L189.341 58.45V56.4H190.041L187.141 52.75V56.4ZM247.99 71.35C247.99 72.5167 248.29 73.2833 248.89 73.65L247.99 75C247.123 75 246.207 74.7833 245.24 74.35C244.307 73.9167 243.573 73.45 243.04 72.95C242.473 73.45 241.507 73.9167 240.14 74.35C238.807 74.7833 237.54 75 236.34 75C233.907 75 231.923 74.35 230.39 73.05C229.023 74.35 227.457 75 225.69 75C223.957 75 222.34 74.15 220.84 72.45C219.373 70.7833 218.523 69.05 218.29 67.25L219.69 66.35C219.857 66.6167 220.19 66.75 220.69 66.75C222.023 66.75 222.69 65.5167 222.69 63.05H222.19L219.69 60.05V56.4C221.09 56.4 222.073 56.45 222.64 56.55V47.05H221.24L218.74 44.05V37H245.59L248.09 40V52.2H242.29L239.79 49.2V47.05H234.44V49.95H237.99L240.49 52.95V58.75H236.74L237.29 59.4V63.05C236.757 63.0833 236.323 63.1333 235.99 63.2C235.657 63.2333 235.307 63.4 234.94 63.7C234.573 64 234.39 64.4333 234.39 65V65.2C234.857 65.3667 235.523 65.45 236.39 65.45C237.257 65.45 238.073 65.1833 238.84 64.65C239.607 64.1167 239.99 63.3667 239.99 62.4C239.99 62.2333 239.89 61.75 239.69 60.95V59.35H245.49L247.99 62.35V71.35ZM225.39 58.05C225.723 57.85 226.123 57.45 226.59 56.85H227.94C228.373 57.45 228.757 57.85 229.09 58.05C229.457 57.5833 229.907 57.2167 230.44 56.95V54.35H236.59V51.35H230.44V42.65H241.19V47.8H244.19V38.4H220.14V42.65H224.14V57C224.573 57.2333 224.99 57.5833 225.39 58.05ZM241.34 62.6C241.34 63.9333 240.823 64.9833 239.79 65.75C238.79 66.5167 237.557 66.9 236.09 66.9C234.623 66.9 233.307 66.4833 232.14 65.65C231.007 64.7833 230.44 63.4833 230.44 61.75C230.44 61.15 230.673 60.5333 231.14 59.9C231.64 59.2333 232.423 58.9 233.49 58.9V57.7C232.89 57.7 232.423 57.7333 232.09 57.8C231.79 57.8333 231.39 58.0333 230.89 58.4C230.39 58.7333 229.94 59.25 229.54 59.95C228.74 59.7833 227.973 59.2167 227.24 58.25C226.64 59.1167 225.89 59.6833 224.99 59.95C224.557 59.25 224.09 58.7333 223.59 58.4C223.09 58.0333 222.673 57.8333 222.34 57.8C222.04 57.7333 221.59 57.7 220.99 57.7V58.9C222.123 58.9 222.94 59.3 223.44 60.1C223.973 60.8667 224.24 61.95 224.24 63.35C224.24 64.75 224.007 65.9 223.54 66.8C223.107 67.7 222.173 68.15 220.74 68.15L220.04 68.05C220.64 69.75 221.69 70.6 223.19 70.6C224.69 70.6 226.157 69.85 227.59 68.35H228.04L228.24 68.55C229.84 69.8833 231.773 70.55 234.04 70.55C236.34 70.55 238.507 69.7667 240.54 68.2C240.84 68.5 241.457 68.9333 242.39 69.5C243.323 70.0333 244.057 70.35 244.59 70.45C244.29 70.1167 244.14 69.25 244.14 67.85V60.85H241.09C241.257 61.4167 241.34 62 241.34 62.6ZM276.952 47.05V56.4H277.352L279.852 59.4V63.05C278.552 63.05 277.702 63.2833 277.302 63.75C276.936 64.2167 276.752 64.9667 276.752 66V66.75C276.986 66.75 277.186 66.6167 277.352 66.35L278.752 67.25L281.252 70.25C281.052 71.8167 280.486 73 279.552 73.8C278.619 74.6 277.486 75 276.152 75C274.852 75 273.569 74.55 272.302 73.65C271.036 74.55 269.719 75 268.352 75C267.019 75 265.486 74.2 263.752 72.6C262.019 71 261.052 69.2167 260.852 67.25L262.252 66.35C262.386 66.65 262.702 66.8 263.202 66.8C264.636 66.8 265.352 65.55 265.352 63.05H264.752L262.252 60.05V56.4C263.619 56.4 264.586 56.45 265.152 56.55V47.05H263.702V52.2H257.902L255.402 49.2V37H284.202L286.702 40V52.2H281.202L278.702 49.2V47.05H276.952ZM267.952 58.05C268.286 57.85 268.686 57.45 269.152 56.85H270.452C270.886 57.45 271.286 57.85 271.652 58.05C271.986 57.5833 272.419 57.2167 272.952 56.95V42.65H279.952V47.8H282.802V38.4H256.802V47.8H259.802V42.65H266.652V56.95C267.119 57.1833 267.552 57.55 267.952 58.05ZM269.952 68.95C271.152 69.9833 272.469 70.5 273.902 70.5C275.369 70.5 276.436 69.6667 277.102 68C276.869 68.1333 276.602 68.2 276.302 68.2C273.969 68.2 272.802 66.4833 272.802 63.05C272.802 60.25 273.902 58.85 276.102 58.85V57.6C275.469 57.6 274.986 57.6333 274.652 57.7C274.319 57.7333 273.902 57.9333 273.402 58.3C272.902 58.6667 272.452 59.2167 272.052 59.95C271.252 59.7833 270.502 59.2 269.802 58.2C269.102 59.1 268.352 59.6833 267.552 59.95C267.119 59.2167 266.652 58.6667 266.152 58.3C265.652 57.9333 265.236 57.7333 264.902 57.7C264.569 57.6333 264.102 57.6 263.502 57.6V58.85C265.702 58.85 266.802 60.25 266.802 63.05C266.802 65.5833 266.269 67.1667 265.202 67.8C264.702 68.0667 264.069 68.2 263.302 68.2L262.502 68C263.169 69.6667 264.219 70.5 265.652 70.5C267.119 70.5 268.452 69.9833 269.652 68.95H269.952ZM308.877 47.05H306.327L308.327 56.8L309.877 58.7V56.4H311.327L313.777 45.2H317.277L319.777 48.2L321.927 57.6L322.827 58.7V56.4H324.527L326.577 46.5L324.527 44.05V37H338.427L340.927 40V47.05H337.677L335.177 58.3L336.127 59.4V63C334.86 63.0333 333.86 63.6167 333.127 64.75C332.393 65.8833 332.027 67.1333 332.027 68.5C332.027 70.2667 332.677 71.25 333.977 71.45V75C332.177 75 330.91 74.9167 330.177 74.75C329.477 74.5833 328.86 74.1667 328.327 73.5C327.993 73.7 327.593 74.25 327.127 75.15L326.927 75.6H321.127L318.627 72.6L317.627 70.75L314.927 75.6H309.077C308.41 74.4333 307.893 73.7333 307.527 73.5C306.96 74.2 306.327 74.6167 305.627 74.75C304.96 74.9167 303.793 75 302.127 75L299.627 72V68.45C300.86 68.2167 301.477 67.2333 301.477 65.5C301.477 64.7 301.36 63.95 301.127 63.25L299.827 63L297.327 60V56.4H298.477L296.377 47.05H294.977L292.477 44.05V37H306.377L308.877 40V47.05ZM317.927 57.7C317.293 58.5333 316.51 59.2667 315.577 59.9C314.677 59.3 313.877 58.5667 313.177 57.7H311.227V58.7C311.46 58.8667 311.677 59.1833 311.877 59.65C312.11 60.0833 312.227 60.6167 312.227 61.25C312.227 61.85 311.793 62.8167 310.927 64.15C310.093 65.45 309.443 66.2333 308.977 66.5C308.543 66.2 307.91 65.4 307.077 64.1C306.243 62.8 305.827 61.6833 305.827 60.75C305.827 59.8167 306.16 59.1333 306.827 58.7V57.7H304.827C304.26 58.4333 303.51 59.1667 302.577 59.9C301.677 58.3333 300.36 57.55 298.627 57.55V58.8C299.86 58.9667 300.877 59.7667 301.677 61.2C302.477 62.6 302.877 64.0167 302.877 65.45C302.877 67.7167 302.21 68.9833 300.877 69.25V70.75C302.443 70.75 303.577 70.4333 304.277 69.8C304.643 69.5 304.993 69.0833 305.327 68.55C306.127 69.45 306.877 70.3833 307.577 71.35H311.577L314.927 65.6H316.327L319.377 71.35H323.427L325.527 68.55C326.193 69.6167 326.96 70.2667 327.827 70.5C328.56 70.6667 329.327 70.75 330.127 70.75V69.25C328.76 68.9833 328.077 67.7167 328.077 65.45C328.077 64.0167 328.477 62.6 329.277 61.2C330.11 59.7667 331.16 58.9667 332.427 58.8V57.55C330.693 57.55 329.327 58.3333 328.327 59.9C327.527 59.3 326.76 58.5667 326.027 57.7H324.127V58.7C324.827 59.1667 325.177 59.8667 325.177 60.8C325.177 61.7333 324.76 62.85 323.927 64.15C323.093 65.45 322.443 66.2333 321.977 66.5C321.543 66.2333 320.91 65.45 320.077 64.15C319.243 62.8167 318.827 61.6667 318.827 60.7C318.827 59.7333 319.143 59.0667 319.777 58.7V57.7H317.927ZM302.727 58C303.06 57.7333 303.543 57.2 304.177 56.4H304.927L302.177 42.65H304.977V38.4H293.877V42.65H296.877L299.977 56.5C301.143 56.6667 302.06 57.1667 302.727 58ZM337.027 42.65V38.4H325.927V42.65H328.727L325.927 56.4H326.627C327.293 57.2667 327.827 57.8 328.227 58C328.893 57.1333 329.777 56.6333 330.877 56.5L334.027 42.65H337.027ZM315.577 58.2C315.91 58 316.51 57.4 317.377 56.4H318.477L316.227 46.55H314.827L312.677 56.4H313.877C314.677 57.4 315.243 58 315.577 58.2ZM366.395 75.6C361.595 75.6 357.662 74.45 354.595 72.15C351.529 69.8833 349.995 67.0333 349.995 63.6V63.05H349.495L346.995 60.05V56.4C348.462 56.4 349.479 56.45 350.045 56.55V45.45C350.045 43.7167 350.462 42.2333 351.295 41C352.162 39.7333 353.312 38.7833 354.745 38.15C357.379 36.9833 360.429 36.4 363.895 36.4C368.762 36.4 372.695 37.5167 375.695 39.75C378.729 41.95 380.245 44.85 380.245 48.45V56.4H380.795L383.295 59.4V63.05C382.029 63.05 381.212 63.2833 380.845 63.75C380.479 64.2167 380.295 64.95 380.295 65.95V66.6C380.295 68.3333 379.862 69.8167 378.995 71.05C378.162 72.2833 377.012 73.2167 375.545 73.85C372.879 75.0167 369.829 75.6 366.395 75.6ZM352.645 58.05C353.045 57.8167 353.462 57.4167 353.895 56.85H355.145C355.579 57.45 355.979 57.85 356.345 58.05C356.945 57.35 357.629 56.9 358.395 56.7V46.85C358.395 45.15 358.912 43.8333 359.945 42.9C360.979 41.9333 362.312 41.45 363.945 41.45C365.579 41.45 366.895 41.9167 367.895 42.85C368.895 43.7833 369.395 45.1167 369.395 46.85V56.7C370.162 56.9 370.845 57.35 371.445 58.05C371.779 57.85 372.179 57.45 372.645 56.85H373.895C374.329 57.45 374.745 57.85 375.145 58.05C375.479 57.6167 375.862 57.2833 376.295 57.05V45.55C376.295 44.15 375.929 42.9333 375.195 41.9C374.462 40.8667 373.479 40.0667 372.245 39.5C371.012 38.9333 369.695 38.5167 368.295 38.25C366.895 37.9833 365.429 37.85 363.895 37.85C362.362 37.85 360.895 37.9833 359.495 38.25C358.129 38.5167 356.812 38.9333 355.545 39.5C354.312 40.0667 353.329 40.8667 352.595 41.9C351.862 42.9333 351.495 44.15 351.495 45.55V57.05C351.962 57.35 352.345 57.6833 352.645 58.05ZM358.095 70.45C359.862 70.8833 361.795 71.1 363.895 71.1C365.995 71.1 367.929 70.8833 369.695 70.45C371.462 70.0167 372.995 69.2167 374.295 68.05C375.629 66.85 376.295 65.35 376.295 63.55V63.05C376.295 60.2833 377.379 58.9 379.545 58.9V57.7C378.945 57.7 378.479 57.7333 378.145 57.8C377.845 57.8333 377.429 58.0333 376.895 58.4C376.395 58.7333 375.929 59.25 375.495 59.95C374.762 59.7833 374.029 59.2167 373.295 58.25C372.695 59.1167 371.929 59.6833 370.995 59.95C370.595 59.25 370.145 58.7333 369.645 58.4C369.145 58.0333 368.729 57.8333 368.395 57.8C368.062 57.7333 367.595 57.7 366.995 57.7V58.9C368.095 58.9 368.879 59.2167 369.345 59.85C369.812 60.4833 370.045 61.1167 370.045 61.75C370.045 63.55 369.462 64.9667 368.295 66C367.129 67 365.662 67.5 363.895 67.5C362.129 67.5 360.662 67 359.495 66C358.329 64.9667 357.745 63.55 357.745 61.75C357.745 61.1167 357.979 60.4833 358.445 59.85C358.912 59.2167 359.695 58.9 360.795 58.9V57.7C360.195 57.7 359.729 57.7333 359.395 57.8C359.062 57.8333 358.645 58.0333 358.145 58.4C357.645 58.7333 357.195 59.25 356.795 59.95C355.929 59.7833 355.162 59.2167 354.495 58.25C353.829 59.1167 353.095 59.6833 352.295 59.95C351.862 59.25 351.379 58.7333 350.845 58.4C350.345 58.0333 349.929 57.8333 349.595 57.8C349.295 57.7333 348.845 57.7 348.245 57.7V58.9C350.412 58.9 351.495 60.2833 351.495 63.05V63.55C351.495 65.35 352.145 66.85 353.445 68.05C354.779 69.2167 356.329 70.0167 358.095 70.45ZM362.345 49.9V56.65L364.645 59.4V63.05C364.079 63.0833 363.629 63.1333 363.295 63.2C362.962 63.2333 362.595 63.4 362.195 63.7C361.829 64 361.645 64.4333 361.645 65C361.645 65.7 362.312 66.05 363.645 66.05C364.979 66.05 366.045 65.7833 366.845 65.25C367.679 64.6833 368.229 63.95 368.495 63.05H368.145L365.645 60.05V56.4C366.712 56.4 367.479 56.4167 367.945 56.45V46.9C367.945 46.6333 367.762 46.4167 367.395 46.25C367.029 46.05 366.695 45.95 366.395 45.95C365.162 45.95 364.179 46.3 363.445 47C362.712 47.6667 362.345 48.6333 362.345 49.9ZM409.751 63.05H409.151C407.851 63.05 407.018 63.2833 406.651 63.75C406.318 64.2167 406.151 64.9667 406.151 66V66.75C406.351 66.65 406.518 66.5167 406.651 66.35L410.551 70.25C410.351 71.8167 409.785 73 408.851 73.8C407.918 74.6 406.818 75 405.551 75C404.285 75 402.985 74.55 401.651 73.65C400.318 74.55 399.018 75 397.751 75C395.951 75 394.301 74.15 392.801 72.45C391.301 70.7833 390.435 69.05 390.201 67.25L391.601 66.35C391.768 66.65 392.135 66.8 392.701 66.8C393.268 66.8 393.701 66.5833 394.001 66.15C394.335 65.6833 394.518 65.2333 394.551 64.8C394.618 64.3667 394.651 63.7833 394.651 63.05H394.101L391.601 60.05V56.4C392.968 56.4 393.935 56.45 394.501 56.55V47.05H393.101L390.601 44.05V37H408.551C413.118 37 416.701 38.3167 419.301 40.95C421.901 43.5833 423.201 46.9333 423.201 51C423.201 55.0667 421.935 58.0833 419.401 60.05C420.501 61.75 421.051 63.75 421.051 66.05V66.75C421.285 66.65 421.468 66.5167 421.601 66.35L422.951 67.25L425.451 70.25C425.285 71.9167 424.668 73.1167 423.601 73.85C422.535 74.6167 420.868 75 418.601 75C416.335 75 414.285 74.0167 412.451 72.05C410.651 70.1167 409.751 67.6333 409.751 64.6V63.05ZM412.451 58.05C412.851 57.8167 413.268 57.4167 413.701 56.85C414.035 56.85 414.268 56.8667 414.401 56.9C417.601 55.4333 419.201 52.3833 419.201 47.75C419.201 46.1167 418.918 44.7167 418.351 43.55C417.818 42.35 417.168 41.4333 416.401 40.8C415.668 40.1333 414.585 39.5667 413.151 39.1C411.751 38.6333 410.101 38.4 408.201 38.4H392.001V42.65H396.001V56.95C396.501 57.2167 396.935 57.5833 397.301 58.05C397.635 57.85 398.035 57.45 398.501 56.85H399.801C400.235 57.45 400.651 57.85 401.051 58.05C401.785 57.0833 402.835 56.55 404.201 56.45C404.701 56.4167 405.518 56.4 406.651 56.4C407.818 56.4 408.668 56.4167 409.201 56.45C410.635 56.55 411.718 57.0833 412.451 58.05ZM405.401 57.6C404.801 57.6 404.335 57.6333 404.001 57.7C403.701 57.7333 403.301 57.9333 402.801 58.3C402.301 58.6667 401.851 59.2167 401.451 59.95C400.618 59.7833 399.851 59.2 399.151 58.2C398.451 59.1 397.685 59.6833 396.851 59.95C396.451 59.2167 396.001 58.6667 395.501 58.3C395.001 57.9333 394.585 57.7333 394.251 57.7C393.951 57.6333 393.518 57.6 392.951 57.6V58.85C395.085 58.85 396.151 60.25 396.151 63.05C396.151 64.0833 396.085 64.9333 395.951 65.6C395.851 66.2333 395.535 66.8333 395.001 67.4C394.468 67.9333 393.701 68.2 392.701 68.2L391.951 68C392.618 69.6667 393.668 70.5 395.101 70.5C396.535 70.5 397.835 69.9833 399.001 68.95H399.301C400.468 69.9833 401.751 70.5 403.151 70.5C404.585 70.5 405.668 69.6667 406.401 68C406.235 68.1333 405.868 68.2 405.301 68.2C404.735 68.2 404.201 68.0667 403.701 67.8C403.235 67.5 402.901 67.0833 402.701 66.55C402.368 65.65 402.201 64.4833 402.201 63.05C402.201 60.25 403.268 58.85 405.401 58.85H408.001C410.168 58.85 411.251 60.25 411.251 63.05V64.35C411.251 68.45 412.985 70.5 416.451 70.5C418.218 70.5 419.451 70.2 420.151 69.6C420.818 69.0667 421.201 68.5333 421.301 68C421.101 68.1333 420.851 68.2 420.551 68.2C419.185 68.2 418.285 67.7333 417.851 66.8C417.418 65.8667 417.201 64.55 417.201 62.85C417.201 60.3833 416.218 58.8333 414.251 58.2C413.618 59.1 412.885 59.6833 412.051 59.95C411.618 59.2167 411.151 58.6667 410.651 58.3C410.151 57.9333 409.735 57.7333 409.401 57.7C409.068 57.6333 408.601 57.6 408.001 57.6H405.401ZM402.401 42.65H405.551C410.318 42.65 412.701 44.5 412.701 48.2C412.701 50.1667 412.118 51.7833 410.951 53.05C409.818 54.3167 408.035 54.95 405.601 54.95H402.401V42.65ZM407.901 47H406.301V53.5C409.635 53.2333 411.301 51.4667 411.301 48.2L411.251 47.45C410.618 47.15 409.501 47 407.901 47ZM451.312 63.05H450.712C449.412 63.05 448.578 63.2833 448.212 63.75C447.878 64.2167 447.712 64.9667 447.712 66V66.75C447.912 66.65 448.078 66.5167 448.212 66.35L452.112 70.25C451.912 71.8167 451.345 73 450.412 73.8C449.478 74.6 448.378 75 447.112 75C445.845 75 444.545 74.55 443.212 73.65C441.878 74.55 440.578 75 439.312 75C437.512 75 435.862 74.15 434.362 72.45C432.862 70.7833 431.995 69.05 431.762 67.25L433.162 66.35C433.328 66.65 433.695 66.8 434.262 66.8C434.828 66.8 435.262 66.5833 435.562 66.15C435.895 65.6833 436.078 65.2333 436.112 64.8C436.178 64.3667 436.212 63.7833 436.212 63.05H435.662L433.162 60.05V56.4C434.528 56.4 435.495 56.45 436.062 56.55V47.05H435.662L433.162 44.05V37H447.362L449.862 40V46.1L451.112 44.65L450.312 44.05V37H463.312L465.812 40V47.05H463.212L455.712 55.8L456.862 57.05C458.695 57.4833 460.112 58.5667 461.112 60.3C462.112 62 462.612 63.9167 462.612 66.05V66.75C462.845 66.65 463.028 66.5167 463.162 66.35L464.512 67.25L467.012 70.25C466.845 71.9167 466.228 73.1167 465.162 73.85C464.095 74.6167 462.428 75 460.162 75C457.895 75 455.845 74.0167 454.012 72.05C452.212 70.1167 451.312 67.6333 451.312 64.6V63.05ZM438.862 58.05C439.195 57.85 439.595 57.45 440.062 56.85H441.362C441.795 57.45 442.212 57.85 442.612 58.05C443.345 57.0833 444.395 56.55 445.762 56.45C446.262 56.4167 447.078 56.4 448.212 56.4C449.378 56.4 450.228 56.4167 450.762 56.45C452.195 56.55 453.278 57.0833 454.012 58.05C454.312 57.9167 454.662 57.6 455.062 57.1L451.162 53.05L460.012 42.65H461.912V38.4H451.662V42.65H454.612L445.712 52.95H443.862V42.65H445.962V38.4H434.562V42.65H437.562V56.95C438.062 57.2167 438.495 57.5833 438.862 58.05ZM446.962 57.6C446.362 57.6 445.895 57.6333 445.562 57.7C445.262 57.7333 444.862 57.9333 444.362 58.3C443.862 58.6667 443.412 59.2167 443.012 59.95C442.178 59.7833 441.412 59.2 440.712 58.2C440.012 59.1 439.245 59.6833 438.412 59.95C438.012 59.2167 437.562 58.6667 437.062 58.3C436.562 57.9333 436.145 57.7333 435.812 57.7C435.512 57.6333 435.078 57.6 434.512 57.6V58.85C436.645 58.85 437.712 60.25 437.712 63.05C437.712 64.0833 437.645 64.9333 437.512 65.6C437.412 66.2333 437.095 66.8333 436.562 67.4C436.028 67.9333 435.262 68.2 434.262 68.2L433.512 68C434.178 69.6667 435.228 70.5 436.662 70.5C438.095 70.5 439.395 69.9833 440.562 68.95H440.862C442.028 69.9833 443.312 70.5 444.712 70.5C446.145 70.5 447.228 69.6667 447.962 68C447.795 68.1333 447.428 68.2 446.862 68.2C446.295 68.2 445.762 68.0667 445.262 67.8C444.795 67.5 444.462 67.0833 444.262 66.55C443.928 65.65 443.762 64.4833 443.762 63.05C443.762 60.25 444.828 58.85 446.962 58.85H449.562C451.728 58.85 452.812 60.25 452.812 63.05V64.35C452.812 68.45 454.545 70.5 458.012 70.5C459.778 70.5 461.012 70.2 461.712 69.6C462.378 69.0667 462.762 68.5333 462.862 68C462.662 68.1333 462.412 68.2 462.112 68.2C460.745 68.2 459.845 67.7333 459.412 66.8C458.978 65.8667 458.762 64.55 458.762 62.85C458.762 60.3833 457.778 58.8333 455.812 58.2C455.178 59.1 454.445 59.6833 453.612 59.95C453.178 59.2167 452.712 58.6667 452.212 58.3C451.712 57.9333 451.295 57.7333 450.962 57.7C450.628 57.6333 450.162 57.6 449.562 57.6H446.962Z" fill="white"/>
</svg>
